<svg width="799" height="226" viewBox="0 0 799 226" fill="none" xmlns="http://www.w3.org/2000/svg">
<path d="M735.016 80.3609C733.072 80.3609 731.181 80.7625 729.508 81.7094L676.558 112.287C673.131 114.262 671.048 117.991 671.048 121.958V183.003C671.048 186.967 673.131 190.691 676.558 192.67L690.386 200.653C697.105 203.964 699.581 203.913 702.639 203.913C712.586 203.913 718.266 197.877 718.266 187.387V127.128C718.266 126.277 717.528 125.667 716.692 125.667H710.059C709.209 125.667 708.486 126.277 708.486 127.128V187.387C708.486 192.036 703.642 196.712 695.783 192.783L681.392 184.352C680.883 184.075 680.492 183.586 680.492 183.003V121.956C680.492 121.378 680.878 120.789 681.392 120.495L734.23 90.0312C734.468 89.8918 734.74 89.8182 735.016 89.8182C735.293 89.8182 735.564 89.8918 735.803 90.0312L788.642 120.497C789.145 120.8 789.542 121.361 789.542 121.959V183.005C789.542 183.587 789.248 184.184 788.755 184.466L735.803 214.931C735.35 215.202 734.725 215.202 734.23 214.931L720.626 206.837C720.419 206.725 720.188 206.666 719.952 206.666C719.717 206.666 719.485 206.725 719.278 206.837C715.523 208.966 714.817 209.212 711.295 210.434C710.428 210.737 709.111 211.208 711.745 212.684L729.508 223.138C731.182 224.104 733.084 224.608 735.017 224.6C736.95 224.612 738.852 224.108 740.525 223.139L793.476 192.672C796.903 190.68 798.984 186.969 798.984 183.005V121.958C798.984 117.992 796.903 114.27 793.476 112.291L740.525 81.7125C738.866 80.7641 736.962 80.3625 735.017 80.3625L735.016 80.3609Z" fill="#83CD29"/>
<path d="M749.181 123.981C734.103 123.981 725.123 130.398 725.123 141.07C725.123 152.645 734.036 155.827 748.508 157.258C765.82 158.953 767.169 161.495 767.169 164.903C767.169 170.814 762.456 173.334 751.319 173.334C737.323 173.334 734.248 169.841 733.219 162.88C733.097 162.133 732.52 161.53 731.756 161.53H724.898C724.055 161.53 723.325 162.258 723.325 163.105C723.325 172.016 728.172 182.553 751.319 182.553C768.073 182.553 777.737 175.977 777.737 164.453C777.737 153.031 769.931 149.964 753.678 147.816C737.256 145.642 735.691 144.578 735.691 140.733C735.691 137.558 737.019 133.311 749.181 133.311C760.047 133.311 764.062 135.655 765.708 142.981C765.852 143.669 766.458 144.217 767.169 144.217H774.028C774.45 144.217 774.859 143.958 775.152 143.655C775.439 143.331 775.642 142.967 775.602 142.531C774.539 129.916 766.127 123.981 749.181 123.981Z" fill="#83CD29"/>
<path d="M423.72 0.317193C423.128 0.317586 422.547 0.472138 422.033 0.765631C421.522 1.06449 421.098 1.49126 420.802 2.00388C420.507 2.51651 420.35 3.09731 420.347 3.68907V89.6922C420.347 90.5359 419.955 91.2922 419.223 91.7156C418.865 91.9244 418.458 92.0344 418.043 92.0344C417.628 92.0344 417.221 91.9244 416.862 91.7156L402.809 83.6219C401.784 83.0288 400.621 82.7165 399.437 82.7165C398.252 82.7165 397.089 83.0288 396.064 83.6219L339.966 115.998C337.869 117.209 336.594 119.536 336.594 121.958V186.713C336.594 189.131 337.87 191.347 339.966 192.558L396.064 224.936C397.089 225.531 398.252 225.844 399.437 225.844C400.621 225.844 401.785 225.531 402.809 224.936L458.908 192.558C459.935 191.967 460.788 191.115 461.38 190.088C461.972 189.062 462.283 187.898 462.281 186.713V25.275C462.28 24.0622 461.956 22.8715 461.344 21.8246C460.732 20.7776 459.853 19.9118 458.797 19.3156L425.406 0.653131C424.883 0.360943 424.302 0.309381 423.72 0.317193ZM62.8453 81.1484C61.7765 81.1906 60.7703 81.3781 59.8109 81.9344L3.71092 114.312C2.68329 114.903 1.83009 115.755 1.2379 116.781C0.645717 117.808 0.33561 118.973 0.339048 120.158L0.451548 207.062C0.451548 208.27 1.07499 209.394 2.13749 209.984C2.64687 210.29 3.22994 210.452 3.8242 210.452C4.41847 210.452 5.00153 210.29 5.51092 209.984L38.7875 190.873C40.8953 189.62 42.2719 187.442 42.2719 185.027V144.442C42.2719 142.02 43.5453 139.798 45.6453 138.595L59.8094 130.389C60.8335 129.794 61.9982 129.483 63.1828 129.489C64.339 129.489 65.5265 129.778 66.5547 130.389L80.7203 138.595C81.7489 139.185 82.6029 140.037 83.1954 141.064C83.788 142.091 84.0979 143.257 84.0937 144.442V185.025C84.0937 187.441 85.4844 189.634 87.5781 190.872L120.855 209.984C121.364 210.29 121.947 210.452 122.541 210.452C123.136 210.452 123.719 210.29 124.228 209.984C124.741 209.688 125.167 209.261 125.463 208.748C125.759 208.235 125.915 207.653 125.916 207.061L126.025 120.158C126.032 118.972 125.723 117.806 125.13 116.779C124.538 115.752 123.683 114.9 122.653 114.312L66.5547 81.9344C65.6062 81.3781 64.5969 81.1922 63.5203 81.1484H62.8453ZM566.945 81.9344C565.773 81.9344 564.625 82.2313 563.573 82.8344L507.475 115.213C506.448 115.803 505.595 116.655 505.002 117.682C504.41 118.708 504.099 119.873 504.102 121.058V185.812C504.102 188.248 505.473 190.455 507.586 191.659L563.236 223.363C565.291 224.534 567.8 224.623 569.869 223.472L603.595 204.698C604.666 204.105 605.389 202.995 605.394 201.777C605.399 201.183 605.246 200.599 604.95 200.085C604.653 199.571 604.224 199.145 603.708 198.853L547.272 166.475C546.216 165.872 545.473 164.652 545.473 163.439V143.205C545.473 141.994 546.223 140.884 547.272 140.281L564.809 130.163C565.322 129.866 565.904 129.71 566.496 129.71C567.088 129.71 567.67 129.866 568.183 130.163L585.719 140.281C586.232 140.576 586.659 141.002 586.955 141.515C587.252 142.028 587.407 142.611 587.406 143.203V159.167C587.405 159.76 587.56 160.342 587.856 160.855C588.152 161.368 588.578 161.794 589.092 162.089C590.144 162.697 591.416 162.698 592.464 162.089L626.08 142.531C627.105 141.938 627.957 141.085 628.549 140.059C629.141 139.033 629.453 137.869 629.453 136.684V121.059C629.453 118.645 628.172 116.425 626.08 115.213L570.319 82.8344C569.294 82.2414 568.129 81.9298 566.945 81.9344ZM399.211 130.277C399.505 130.277 399.848 130.348 400.111 130.5L419.336 141.63C419.858 141.931 420.236 142.489 420.236 143.091V165.35C420.236 165.955 419.861 166.511 419.336 166.813L400.111 177.942C399.854 178.089 399.564 178.166 399.268 178.166C398.972 178.166 398.682 178.089 398.425 177.942L379.202 166.813C378.678 166.509 378.302 165.955 378.302 165.35V143.091C378.302 142.488 378.68 141.934 379.202 141.63L398.425 130.502C398.661 130.355 398.934 130.277 399.212 130.278L399.211 130.277Z" fill="#404137"/>
<path d="M231.366 81.5969C230.197 81.5969 229.041 81.8938 227.994 82.4969L171.895 114.763C169.797 115.97 168.522 118.302 168.522 120.72V185.475C168.522 187.897 169.798 190.109 171.895 191.322L227.994 223.698C229.018 224.294 230.182 224.607 231.366 224.607C232.551 224.607 233.715 224.294 234.739 223.698L290.838 191.322C291.865 190.73 292.717 189.878 293.309 188.852C293.901 187.825 294.212 186.66 294.209 185.475V120.72C294.209 118.298 292.934 115.97 290.838 114.763L234.739 82.4969C233.714 81.9046 232.55 81.5941 231.366 81.5969ZM566.833 139.383C566.609 139.383 566.361 139.383 566.159 139.495L555.367 145.791C555.166 145.902 554.998 146.065 554.879 146.263C554.761 146.46 554.696 146.685 554.692 146.916V159.281C554.692 159.747 554.961 160.173 555.367 160.406L566.159 166.589C566.564 166.823 566.995 166.823 567.395 166.589L578.187 160.405C578.388 160.292 578.556 160.13 578.674 159.933C578.792 159.736 578.857 159.511 578.862 159.281V146.914C578.857 146.684 578.792 146.46 578.674 146.263C578.556 146.066 578.388 145.903 578.187 145.791L567.395 139.494C567.195 139.377 567.058 139.383 566.833 139.383Z" fill="#83CD29"/>
</svg>
